HIERARCHY
ROOT Hips
{
OFFSET -0.1795 -22.3333 2.8219000000000003
	CHANNELS 6 Xposition Yposition Zposition Zrotation Yrotation Xrotation 
	JOINT LeftUpLeg
	{
OFFSET 6.952 -9.140600000000001 -0.6815
		CHANNELS 3 Zrotation Yrotation Xrotation
		JOINT LeftLeg
		{
OFFSET 3.4277 -37.5199 -0.4496
			CHANNELS 3 Zrotation Yrotation Xrotation
			JOINT LeftFoot
			{
OFFSET -1.3596000000000001 -39.7961 -4.3693
				CHANNELS 3 Zrotation Yrotation Xrotation
				JOINT LeftToe
				{
OFFSET 2.6358 -5.5791 11.9288
					CHANNELS 3 Zrotation Yrotation Xrotation
					End Site
					{
OFFSET 0.0 0.0 0.0
					}
				}
			}
		}
	}
	JOINT RightUpLeg
	{
OFFSET -6.7669999999999995 -9.052200000000001 -0.432
		CHANNELS 3 Zrotation Yrotation Xrotation
		JOINT RightLeg
		{
OFFSET -3.8289999999999997 -38.2569 -0.885
			CHANNELS 3 Zrotation Yrotation Xrotation
			JOINT RightFoot
			{
OFFSET 1.5774 -39.8415 -4.2312
				CHANNELS 3 Zrotation Yrotation Xrotation
				JOINT RightToe
				{
OFFSET -2.5372 -4.8144 12.3348
					CHANNELS 3 Zrotation Yrotation Xrotation
					End Site
					{
OFFSET 0.0 0.0 0.0
					}
				}
			}
		}
	}
	JOINT Spine
	{
OFFSET -0.2533 10.8963 -2.6696
		CHANNELS 3 Zrotation Yrotation Xrotation
		JOINT Spine1
		{
OFFSET 0.5487 13.517999999999999 0.1092
			CHANNELS 3 Zrotation Yrotation Xrotation
			JOINT Spine2
			{
OFFSET 0.1457 5.292199999999999 2.5425
				CHANNELS 3 Zrotation Yrotation Xrotation
				JOINT Neck
				{
OFFSET -0.2778 21.387 -4.2857
					CHANNELS 3 Zrotation Yrotation Xrotation
					JOINT Head
					{
OFFSET 0.5152 6.497 5.1349
						CHANNELS 3 Zrotation Yrotation Xrotation
						End Site
						{
OFFSET 0.0 0.0 0.0
						}
					}
				}
				JOINT LeftShoulder
				{
OFFSET 7.8845 12.1749 -3.4090000000000003
					CHANNELS 3 Zrotation Yrotation Xrotation
					JOINT LeftArm
					{
OFFSET 9.0977 3.0469 -0.8867999999999999
						CHANNELS 3 Zrotation Yrotation Xrotation
						JOINT LeftForeArm
						{
OFFSET 25.9612 -1.2772000000000001 -2.7456
							CHANNELS 3 Zrotation Yrotation Xrotation
							JOINT LeftHand
							{
OFFSET 24.9234 0.8986 -0.1171
								CHANNELS 3 Zrotation Yrotation Xrotation
								End Site
								{
OFFSET 0.0 0.0 0.0
								}
							}
						}
					}
				}
				JOINT RightShoulder
				{
OFFSET -8.1759 11.8833 -3.8614999999999995
					CHANNELS 3 Zrotation Yrotation Xrotation
					JOINT RightArm
					{
OFFSET -9.6012 3.2550999999999997 -0.9143
						CHANNELS 3 Zrotation Yrotation Xrotation
						JOINT RightForeArm
						{
OFFSET -25.374200000000002 -1.3329 -2.1401
							CHANNELS 3 Zrotation Yrotation Xrotation
							JOINT RightHand
							{
OFFSET -25.5298 0.7772 -0.5559
								CHANNELS 3 Zrotation Yrotation Xrotation
								End Site
								{
OFFSET 0.0 0.0 0.0
								}
							}
						}
					}
				}
			}
		}
	}
}
MOTION
Frames: 6
Frame Time: 0.050000
0.0 93.6047 0.0 -2.861446 -1.023542 -3.951667 16.320264 0.109802 -2.278183 -5.037931 0.758966 17.230538 5.396530 12.245614 5.327952 0.000000 0.000000 0.000000 -6.809137 0.218597 -2.738075 6.989512 -1.044367 15.106137 -5.493119 -14.461198 5.195913 0.000000 0.000000 0.000000 -1.505238 -0.139578 4.728054 4.416449 -0.663068 -21.685694 0.774016 0.588993 27.744415 1.513055 0.840810 -27.954798 0.000000 0.000000 0.000000 -28.209955 -2.473693 -0.115049 -49.778111 -8.561919 -4.860182 -9.322480 -31.974760 4.446702 0.000000 0.000000 0.000000 19.881644 9.605961 4.248461 55.796062 12.185129 -2.377925 -6.430593 33.205342 -0.059759 0.000000 0.000000 0.000000
-0.0241 93.5316 -0.0794 -3.273596 -2.243382 -3.536243 17.476189 0.181374 -2.087570 -5.741253 1.017910 17.594851 5.578444 12.409195 4.467139 0.000000 0.000000 0.000000 -6.632717 0.301389 -4.055582 7.804194 -1.212396 16.601254 -5.723861 -14.952208 5.060433 0.000000 0.000000 0.000000 -1.399552 -0.105890 3.474783 4.355349 -0.726512 -20.851278 1.715714 1.018099 27.836820 2.083439 0.424348 -27.298591 0.000000 0.000000 0.000000 -28.806204 -2.983027 0.319690 -49.529166 -9.446378 -4.526547 -9.362155 -31.245256 4.350609 0.000000 0.000000 0.000000 18.662991 10.243541 4.457319 56.988345 12.545236 -2.196654 -8.404363 32.814559 -0.594656 0.000000 0.000000 0.000000
-0.0168 93.3872 -0.1307 -3.141744 -1.983021 -3.827363 17.164539 0.157860 -1.906017 -5.259180 0.874913 17.790665 5.965128 13.007290 3.680245 0.000000 0.000000 0.000000 -6.515547 0.312799 -4.455899 7.519107 -1.170158 17.324987 -5.755801 -15.139234 5.964570 0.000000 0.000000 0.000000 -1.364309 -0.104392 3.352675 4.836582 -0.844686 -21.004016 1.153663 1.186365 28.212387 2.344072 0.364443 -27.899379 0.000000 0.000000 0.000000 -28.725670 -3.104414 0.297400 -48.718716 -9.597931 -4.437620 -9.970847 -31.614513 4.556617 0.000000 0.000000 0.000000 19.294112 10.672133 4.791403 54.770887 12.361202 -2.309863 -7.485608 32.874464 -0.389292 0.000000 0.000000 0.000000
0.002 93.3901 -0.18610000000000002 -3.433759 -2.631920 -4.240406 17.935174 0.222177 -1.749360 -5.798135 1.089929 19.228835 6.376943 13.803281 3.945083 0.000000 0.000000 0.000000 -6.476047 0.324285 -4.631785 8.051726 -1.289006 18.141986 -6.018876 -15.668071 5.763859 0.000000 0.000000 0.000000 -1.276679 -0.109324 3.389269 4.854629 -0.878144 -20.803790 1.589228 1.006117 27.849428 2.623316 0.133280 -28.108411 0.000000 0.000000 0.000000 -29.444225 -2.516269 0.083224 -47.850644 -10.135502 -4.200113 -9.697847 -32.238147 4.602680 0.000000 0.000000 0.000000 18.769415 11.641298 5.094535 54.472557 12.565742 -2.123435 -7.643377 32.822968 -0.509292 0.000000 0.000000 0.000000
0.0279 93.37769999999999 -0.23709999999999998 -3.188677 -2.467796 -4.535765 17.661540 0.218067 -1.757707 -5.738365 1.064904 19.341735 6.449441 13.999495 4.444731 0.000000 0.000000 0.000000 -6.839434 0.299022 -4.379317 8.001268 -1.281826 17.999454 -6.033299 -15.715960 5.949390 0.000000 0.000000 0.000000 -1.440693 -0.115043 3.706657 5.308497 -1.035546 -20.371433 1.364319 1.665301 27.107642 3.298571 -0.130637 -27.804773 0.000000 0.000000 0.000000 -29.259634 -2.675210 -0.156133 -47.443882 -10.022017 -4.048317 -11.241057 -33.288705 5.154542 0.000000 0.000000 0.000000 20.084453 11.131840 5.058312 52.487036 12.320705 -2.184443 -6.297879 34.023116 -0.144529 0.000000 0.000000 0.000000
0.0604 93.4066 -0.2858 -3.186011 -2.416391 -4.555911 17.870460 0.198839 -1.418448 -6.103066 1.165954 19.278980 6.616707 14.298105 4.364593 0.000000 0.000000 0.000000 -6.900111 0.295413 -4.352714 7.851386 -1.249422 18.169012 -5.994757 -15.577439 5.507710 0.000000 0.000000 0.000000 -1.688782 -0.107397 3.659392 5.594570 -1.085747 -20.743834 1.559082 1.662759 27.286876 3.991355 -0.491679 -28.113756 0.000000 0.000000 0.000000 -29.319092 -2.133999 -0.519381 -47.292369 -10.095906 -4.031405 -11.921628 -33.707175 5.446004 0.000000 0.000000 0.000000 19.982541 11.446352 5.241015 51.987478 12.583858 -2.093897 -5.611970 34.118782 0.041453 0.000000 0.000000 0.000000
